<?xml version="1.0" encoding="utf-8"?>
<!-- Generator: Adobe Illustrator 22.1.0, SVG Export Plug-In . SVG Version: 6.00 Build 0)  -->
<svg version="1.1" id="Layer_1" xmlns="http://www.w3.org/2000/svg" xmlns:xlink="http://www.w3.org/1999/xlink" x="0px" y="0px"
	 viewBox="0 0 24 24" style="enable-background:new 0 0 24 24;" xml:space="preserve">
<style type="text/css">
	.st0{fill:#ff7700;}
</style>
<path class="st0" d="M12,5c-3.9,0-7,3.1-7,7s3.1,7,7,7s7-3.1,7-7S15.9,5,12,5z M12,17c-2.8,0-5-2.2-5-5s2.2-5,5-5s5,2.2,5,5
	S14.8,17,12,17z"/>
<path class="st0" d="M12,9c-1.6,0-3,1.4-3,3s1.4,3,3,3s3-1.4,3-3S13.6,9,12,9z"/>
</svg>
